<svg width="50" height="50" viewBox="0 0 50 50" fill="none" xmlns="http://www.w3.org/2000/svg">
<rect width="50" height="50" rx="25" fill="#F44336"/>
<path d="M25 23C26.1 23 27 22.1 27 21V17C27 15.9 26.1 15 25 15C23.9 15 23 15.9 23 17V21C23 22.1 23.9 23 25 23Z" fill="#F8FEFF"/>
<path d="M32.1 17.9C31.8 17.6 31.5 17.5 31 17.5C30.2 17.5 29.5 18.2 29.5 19C29.5 19.4 29.7 19.8 29.9 20.1C31.2 21.4 31.9 23.1 31.9 25C31.9 28.9 28.8 32 24.9 32C21 32 17.9 28.9 17.9 25C17.9 23.1 18.7 21.3 20 20.1C20.3 19.8 20.5 19.4 20.5 19C20.5 18.2 19.8 17.5 19 17.5C18.6 17.5 18.2 17.7 17.9 17.9C16.1 19.7 15 22.2 15 25C15 30.5 19.5 35 25 35C30.5 35 35 30.5 35 25C35 22.2 33.9 19.7 32.1 17.9Z" fill="#F8FEFF"/>
</svg>
