<svg width="30" height="30" viewBox="0 0 30 30" fill="none" xmlns="http://www.w3.org/2000/svg">
<path fill-rule="evenodd" clip-rule="evenodd" d="M15 8.33334C14.5065 8.33334 14.0639 8.5468 13.7575 8.8891C13.4506 9.23204 12.9238 9.26122 12.5808 8.95428C12.2379 8.64735 12.2087 8.12051 12.5156 7.77758C13.1248 7.09696 14.0127 6.66667 15 6.66667C16.8409 6.66667 18.3333 8.15905 18.3333 10V13.3333C18.3333 13.7936 17.9602 14.1667 17.5 14.1667C17.0397 14.1667 16.6667 13.7936 16.6667 13.3333V10C16.6667 9.07953 15.9205 8.33334 15 8.33334ZM7.74408 7.74408C8.06952 7.41865 8.59715 7.41865 8.92259 7.74408L22.2559 21.0774C22.5813 21.4028 22.5813 21.9305 22.2559 22.2559C21.9305 22.5813 21.4028 22.5813 21.0774 22.2559L19.074 20.2526C18.1558 20.9749 17.0454 21.4602 15.8333 21.6141V22.5C15.8333 22.9603 15.4602 23.3333 15 23.3333C14.5397 23.3333 14.1667 22.9603 14.1667 22.5V21.6143C10.8662 21.1963 8.33333 18.3277 8.33333 14.8809V14.1667C8.33333 13.7064 8.70643 13.3333 9.16667 13.3333C9.6269 13.3333 10 13.7064 10 14.1667V14.8809C10 17.7241 12.2544 20 15 20C16.0732 20 17.0681 19.6544 17.8844 19.0629L16.6932 17.8717C16.1969 18.1648 15.6176 18.3333 15 18.3333C13.159 18.3333 11.6667 16.8409 11.6667 15V12.9167C11.6667 12.8935 11.6676 12.8706 11.6695 12.848L7.74408 8.9226C7.41864 8.59715 7.41864 8.06952 7.74408 7.74408ZM13.3333 14.5118V15C13.3333 15.9205 14.0795 16.6667 15 16.6667C15.1495 16.6667 15.2942 16.6471 15.4318 16.6103L13.3333 14.5118ZM20.8333 13.3333C21.2936 13.3333 21.6667 13.7064 21.6667 14.1667V14.8809C21.6667 15.2487 21.6378 15.6102 21.5823 15.9631C21.5106 16.4177 21.084 16.7282 20.6293 16.6565C20.1747 16.5848 19.8642 16.1583 19.9359 15.7036C19.978 15.4363 20 15.1615 20 14.8809V14.1667C20 13.7064 20.3731 13.3333 20.8333 13.3333Z" fill="#F8FEFF"/>
</svg>
