<svg width="30" height="30" viewBox="0 0 30 30" fill="none" xmlns="http://www.w3.org/2000/svg">
<path d="M19.2939 17.5786H18.3905L18.0703 17.2699C19.191 15.9663 19.8656 14.2739 19.8656 12.4328C19.8656 8.32762 16.538 5 12.4328 5C8.32762 5 5 8.32762 5 12.4328C5 16.538 8.32762 19.8656 12.4328 19.8656C14.2739 19.8656 15.9663 19.191 17.2699 18.0703L17.5786 18.3905V19.2939L23.2962 25L25 23.2962L19.2939 17.5786V17.5786ZM12.4328 17.5786C9.58548 17.5786 7.28702 15.2802 7.28702 12.4328C7.28702 9.58548 9.58548 7.28702 12.4328 7.28702C15.2802 7.28702 17.5786 9.58548 17.5786 12.4328C17.5786 15.2802 15.2802 17.5786 12.4328 17.5786Z" fill="#F8FEFF"/>
</svg>
