<svg width="30" height="30" viewBox="0 0 30 30" fill="none" xmlns="http://www.w3.org/2000/svg">
<path fill-rule="evenodd" clip-rule="evenodd" d="M15 7C13.8954 7 13 7.89543 13 9V15C13 16.1046 13.8954 17 15 17C16.1046 17 17 16.1046 17 15V9C17 7.89543 16.1046 7 15 7ZM11 9C11 6.79086 12.7909 5 15 5C17.2091 5 19 6.79086 19 9V15C19 17.2091 17.2091 19 15 19C12.7909 19 11 17.2091 11 15V9ZM8 13C8.55228 13 9 13.4477 9 14V14.8571C9 18.2689 11.7052 21 15 21C18.2948 21 21 18.2689 21 14.8571V14C21 13.4477 21.4477 13 22 13C22.5523 13 23 13.4477 23 14V14.8571C23 18.9932 19.9606 22.4356 16 22.9372V24C16 24.5523 15.5523 25 15 25C14.4477 25 14 24.5523 14 24V22.9372C10.0394 22.4356 7 18.9932 7 14.8571V14C7 13.4477 7.44772 13 8 13Z" fill="#F8FEFF"/>
</svg>
