<svg width="30" height="30" viewBox="0 0 30 30" fill="none" xmlns="http://www.w3.org/2000/svg">
<path d="M5 20.5385C5 21.8979 5.995 23 7.22222 23H22.7778C24.005 23 25 21.8979 25 20.5385V18.0769H5V20.5385Z" fill="#138808"/>
<path d="M5 11.9231H25V18.0769H5V11.9231Z" fill="#EEEEEE"/>
<path d="M25 11.9231V9.46154C25 8.10215 24.005 7 22.7778 7H7.22222C5.995 7 5 8.10215 5 9.46154V11.9231H25Z" fill="#FF9933"/>
<path d="M15 17.4615C16.2273 17.4615 17.2222 16.3595 17.2222 15C17.2222 13.6405 16.2273 12.5385 15 12.5385C13.7727 12.5385 12.7777 13.6405 12.7777 15C12.7777 16.3595 13.7727 17.4615 15 17.4615Z" fill="#000080"/>
<path d="M15 16.8462C15.9204 16.8462 16.6666 16.0196 16.6666 15C16.6666 13.9804 15.9204 13.1538 15 13.1538C14.0795 13.1538 13.3333 13.9804 13.3333 15C13.3333 16.0196 14.0795 16.8462 15 16.8462Z" fill="#EEEEEE"/>
<path d="M15 13.1538L15.0811 14.5471L15.6372 13.2948L15.2316 14.616L16.1783 13.6942L15.3466 14.7434L16.5394 14.2935L15.4089 14.9102L16.6666 15L15.4089 15.0898L16.5394 15.7058L15.3466 15.2566L16.1783 16.3052L15.2316 15.384L15.6372 16.7052L15.0811 15.4529L15 16.8462L14.9189 15.4529L14.3622 16.7052L14.7683 15.384L13.8211 16.3052L14.6533 15.2566L13.4605 15.7058L14.5911 15.0898L13.3333 15L14.5911 14.9102L13.4605 14.2935L14.6533 14.7434L13.8211 13.6942L14.7683 14.616L14.3622 13.2948L14.9189 14.5471L15 13.1538Z" fill="#6666B3"/>
<path d="M15 15.6154C15.3068 15.6154 15.5555 15.3399 15.5555 15C15.5555 14.6601 15.3068 14.3846 15 14.3846C14.6931 14.3846 14.4444 14.6601 14.4444 15C14.4444 15.3399 14.6931 15.6154 15 15.6154Z" fill="#000080"/>
</svg>
