<svg width="30" height="30" viewBox="0 0 30 30" fill="none" xmlns="http://www.w3.org/2000/svg">
<path d="M12.5 15.8333C14.3409 15.8333 15.8333 14.341 15.8333 12.5C15.8333 10.6591 14.3409 9.16667 12.5 9.16667C10.659 9.16667 9.16666 10.6591 9.16666 12.5C9.16666 14.341 10.659 15.8333 12.5 15.8333Z" fill="white"/>
<path d="M12.5 17.5C10.275 17.5 5.83333 18.6167 5.83333 20.8333V22.5H19.1667V20.8333C19.1667 18.6167 14.725 17.5 12.5 17.5ZM18.9667 9.46666L17.5667 10.875C18.2667 11.8583 18.2667 13.1333 17.5667 14.1167L18.9667 15.525C20.65 13.8417 20.65 11.3 18.9667 9.46666ZM21.725 6.66666L20.3667 8.025C22.675 10.5417 22.675 14.325 20.3667 16.975L21.725 18.3333C24.975 15.0917 24.9833 10.0417 21.725 6.66666Z" fill="#F8FEFF"/>
</svg>
