<svg width="30" height="30" viewBox="0 0 30 30" fill="none" xmlns="http://www.w3.org/2000/svg">
<path d="M15 25C20.5228 25 25 20.5228 25 15C25 9.47715 20.5228 5 15 5C9.47715 5 5 9.47715 5 15C5 20.5228 9.47715 25 15 25Z" fill="#FFCC4D"/>
<path d="M20.1863 18.1272C20.0874 18.0378 19.9396 18.0322 19.8335 18.1111C19.8118 18.1272 17.6546 19.7222 15.0001 19.7222C12.3524 19.7222 10.1879 18.1272 10.1668 18.1111C10.0607 18.0322 9.91292 18.0389 9.81403 18.1272C9.7157 18.2161 9.69347 18.3628 9.76181 18.4761C9.83347 18.5956 11.549 21.3889 15.0001 21.3889C18.4513 21.3889 20.1674 18.5956 20.2385 18.4761C20.3068 18.3622 20.2851 18.2161 20.1863 18.1272V18.1272Z" fill="#664500"/>
<path d="M14.9998 19.7728C14.9176 19.7728 14.8382 19.7667 14.7565 19.7639V22.2728H15.2426V19.7633C15.1621 19.7661 15.0821 19.7728 14.9998 19.7728Z" fill="#65471B"/>
<path d="M17.2222 19.4444C17.2311 19.4422 16.4166 19.6544 15.8633 19.7144C15.66 19.7378 15.4539 19.7567 15.2428 19.7639V22.2733H16.1111C16.7222 22.2733 17.2222 21.7733 17.2222 21.1622V19.4444ZM12.7778 19.4444C12.7689 19.4422 13.5833 19.6544 14.1366 19.7144C14.34 19.7378 14.5461 19.7567 14.7572 19.7639V22.2733H13.8889C13.2778 22.2733 12.7778 21.7733 12.7778 21.1622V19.4444Z" fill="white"/>
<path d="M20.1861 18.1272C20.0872 18.0378 19.9394 18.0322 19.8333 18.1111C19.8167 18.1233 18.5783 19.0378 16.8272 19.4833C16.5811 19.5461 15.7917 19.7222 15.0017 19.7228C14.2105 19.7228 13.4189 19.5461 13.1728 19.4833C11.4217 19.0378 10.1833 18.1233 10.1667 18.1111C10.0611 18.0322 9.91277 18.0378 9.81388 18.1272C9.71499 18.2161 9.69332 18.3622 9.76166 18.4761C9.81555 18.5661 10.8089 20.18 12.7778 20.9656V19.9495C12.7689 19.9472 13.5833 20.1595 14.1367 20.2195C14.34 20.2428 14.5461 20.2617 14.7572 20.2689C14.8383 20.2717 14.9178 20.2778 15 20.2778C15.0822 20.2778 15.1617 20.2717 15.2433 20.2689C15.4544 20.2617 15.6605 20.2433 15.8639 20.2195C16.4172 20.1595 17.2317 19.9472 17.2228 19.9495V20.9656C19.1917 20.18 20.185 18.5661 20.2389 18.4761C20.3067 18.3622 20.285 18.2161 20.1861 18.1272V18.1272ZM19.7911 12.7911C19.7911 13.7433 19.27 14.5156 18.6267 14.5156C17.9839 14.5156 17.4622 13.7433 17.4622 12.7911C17.4622 11.8389 17.9833 11.0667 18.6267 11.0667C19.27 11.0667 19.7911 11.8389 19.7911 12.7911ZM10.2539 12.7911C10.2539 13.7433 10.775 14.5156 11.4183 14.5156C12.0611 14.5156 12.5828 13.7433 12.5828 12.7911C12.5828 11.8389 12.0617 11.0667 11.4183 11.0667C10.775 11.0667 10.2539 11.8389 10.2539 12.7911Z" fill="#65471B"/>
<path d="M24.3379 10.3483C24.2429 10.2561 23.634 10.5006 23.0179 10.1867C21.7468 9.53888 18.5346 8.91388 16.4435 10.3956C16.2196 10.5539 15.284 10.5806 15.0223 10.5694C14.7607 10.5811 13.8251 10.5544 13.6012 10.3956C11.5107 8.91388 8.29845 9.53888 7.02734 10.1867C6.41123 10.5006 5.80234 10.2561 5.70734 10.3483C5.57012 10.4811 5.57012 11.0128 5.7079 11.1461C5.84456 11.2789 6.52845 11.4322 6.66456 11.8306C6.80178 12.2294 6.8029 14.585 7.89401 15.3994C8.91567 16.1617 11.299 16.3911 12.8096 15.5317C14.1273 14.7822 14.0812 13.2044 14.3229 12.2644C14.409 11.9294 14.6518 11.7606 15.0229 11.7606C15.394 11.7606 15.6368 11.9294 15.7229 12.2644C15.9646 13.2039 15.9179 14.7822 17.2362 15.5317C18.7468 16.3906 21.1301 16.1611 22.1512 15.3994C23.2429 14.5855 23.244 12.2294 23.3807 11.8306C23.5168 11.4322 24.2007 11.2783 24.3373 11.1461C24.4751 11.0128 24.4757 10.4811 24.3379 10.3483V10.3483ZM13.119 12.3761C13.0762 12.99 12.9668 14.1689 12.2318 14.5872C11.7812 14.8439 11.194 15 10.5796 15H10.579C9.89845 15 8.95512 14.8072 8.58623 14.5322C8.12512 14.1883 7.94956 12.7728 7.88345 12.2433C7.84123 11.9061 7.7279 11.0822 8.09901 10.9556C8.6879 10.755 9.50956 10.5983 10.3501 10.5983C10.7351 10.5983 12.0285 10.6222 12.6585 11.01C13.2168 11.3528 13.1429 12.0383 13.119 12.3761V12.3761ZM22.1623 12.2356C22.0962 12.7656 21.9207 14.1883 21.4596 14.5322C21.0907 14.8072 20.1473 15 19.4668 15H19.4662C18.8512 15 18.2646 14.8439 17.8135 14.5872C17.0785 14.1694 16.969 12.9978 16.9262 12.3839C16.9029 12.0461 16.8285 11.3556 17.3868 11.0128C18.0173 10.625 19.3101 10.5983 19.6951 10.5983C20.5357 10.5983 21.3568 10.7522 21.9462 10.9528C22.3173 11.0794 22.2046 11.8983 22.1623 12.2356V12.2356Z" fill="#292F33"/>
</svg>
