<svg width="30" height="30" viewBox="0 0 30 30" fill="none" xmlns="http://www.w3.org/2000/svg">
<path d="M25 10.3571C25 8.18714 23.3333 5 15 5C6.66667 5 5 8.18714 5 10.3571C5 10.3893 5.01056 10.4114 5.01222 10.4421C5.00556 10.5821 5 10.7293 5 10.8929C5 12.7664 6.24389 13.5714 7.77778 13.5714C9.31167 13.5714 10.5556 12.7664 10.5556 10.8929C10.5556 10.7371 10.5439 10.5986 10.5272 10.4664C11.8744 10.2157 13.39 10 15 10C16.61 10 18.1256 10.2157 19.4728 10.4664C19.4561 10.5986 19.4444 10.7371 19.4444 10.8929C19.4444 12.7664 20.6878 13.5714 22.2222 13.5714C23.7567 13.5714 25 12.7664 25 10.8929C25 10.7321 24.995 10.5864 24.9867 10.4493C24.9889 10.4164 25 10.3921 25 10.3571Z" fill="#BE1931"/>
<path d="M24.4078 18.5714C24.14 17.835 23.1244 15.5786 22.2033 13.5664C21.3378 11.6757 20 10 18.8889 10V8.57142C18.8889 7.78285 18.3911 7.14285 17.7778 7.14285C17.1644 7.14285 16.6667 7.78285 16.6667 8.57142V10H13.3333V8.57142C13.3333 7.78285 12.8356 7.14285 12.2222 7.14285C11.6089 7.14285 11.1111 7.78285 11.1111 8.57142V10C10 10 8.66111 11.6793 7.79444 13.5714C6.87389 15.5821 5.85944 17.8357 5.59222 18.5714C5.27111 19.4564 5 20 5 21.4286C5 22.8571 5.995 25 7.22222 25H22.7778C24.005 25 25 22.8571 25 21.4286C25 20 24.7511 19.5171 24.4078 18.5714Z" fill="#DD2E44"/>
<path d="M16.1366 12.7271C16.1366 13.05 15.6277 13.3114 15 13.3114C14.3722 13.3114 13.8638 13.05 13.8638 12.7271C13.8638 12.4043 14.3722 12.1429 15 12.1429C15.6277 12.1429 16.1366 12.4043 16.1366 12.7271ZM13.4088 12.7271C13.4088 13.05 12.9005 13.3114 12.2727 13.3114C11.645 13.3114 11.1366 13.05 11.1366 12.7271C11.1366 12.4043 11.6455 12.1429 12.2727 12.1429C12.9 12.1429 13.4088 12.4043 13.4088 12.7271ZM18.8633 12.7271C18.8633 13.05 18.355 13.3114 17.7272 13.3114C17.0994 13.3114 16.5905 13.05 16.5905 12.7271C16.5905 12.4043 17.0994 12.1429 17.7272 12.1429C18.355 12.1429 18.8633 12.4043 18.8633 12.7271ZM16.3633 14.7729C16.3633 15.2579 15.7527 15.65 15 15.65C14.2472 15.65 13.6361 15.2579 13.6361 14.7729C13.6361 14.2893 14.2466 13.8964 15 13.8964C15.7533 13.8964 16.3633 14.2886 16.3633 14.7729ZM19.5455 14.7729C19.5455 15.2579 18.9344 15.65 18.1822 15.65C17.4294 15.65 16.8183 15.2579 16.8183 14.7729C16.8183 14.2893 17.4294 13.8964 18.1822 13.8964C18.9344 13.8964 19.5455 14.2886 19.5455 14.7729ZM13.1816 14.7729C13.1816 15.2579 12.5711 15.65 11.8183 15.65C11.0655 15.65 10.4544 15.2579 10.4544 14.7729C10.4544 14.2893 11.065 13.8964 11.8183 13.8964C12.5711 13.8964 13.1816 14.2886 13.1816 14.7729ZM16.8177 17.4021C16.8177 18.0493 16.0038 18.5714 15 18.5714C13.9961 18.5714 13.1816 18.0493 13.1816 17.4021C13.1816 16.7571 13.9961 16.2336 15 16.2336C16.0038 16.2343 16.8177 16.7571 16.8177 17.4021V17.4021ZM20.9094 17.4021C20.9094 18.0486 20.0944 18.5714 19.0911 18.5714C18.0872 18.5714 17.2727 18.0493 17.2727 17.4021C17.2727 16.7571 18.0872 16.2336 19.0911 16.2336C20.0944 16.2343 20.9094 16.7571 20.9094 17.4021ZM12.7272 17.4021C12.7272 18.0486 11.9127 18.5714 10.9088 18.5714C9.90495 18.5714 9.09106 18.0493 9.09106 17.4021C9.09106 16.7571 9.90495 16.2336 10.9088 16.2336C11.9127 16.2343 12.7272 16.7571 12.7272 17.4021Z" fill="white"/>
</svg>
