<svg width="30" height="30" viewBox="0 0 30 30" fill="none" xmlns="http://www.w3.org/2000/svg">
<path d="M22.0514 14.7412C21.8467 14.5872 21.6074 14.4573 21.3489 14.3571L21.0277 13.538L14.5949 13.5042L14.3484 14.1632C13.9735 14.2205 13.5126 14.3981 13.23 14.5969L10.3307 12.2085C9.67475 12.4284 9.21549 12.9213 9.21549 13.4969V14.0768L6.00391 16.5932L6.01675 17.9148L14.0329 24.3954C14.0329 24.3954 22.4777 15.161 22.4978 15.1791C22.3958 15.0438 22.0875 14.7545 22.0514 14.7412V14.7412Z" fill="#EF9645"/>
<path d="M20.1157 14.1275H14.8319C14.6649 14.1275 14.5019 14.1402 14.3445 14.1643L14.2859 13.9964L11.658 6.46782C11.658 6.46782 11.324 5.28574 12.8945 5.03507C14.4649 4.78379 14.7989 5.96527 14.7989 5.96527L17.2855 12.9533C17.6436 12.9678 17.9905 12.9913 18.3333 13.0179L19.9881 6.66836C19.9881 6.66836 20.139 5.46574 21.7384 5.57869C23.3369 5.69225 23.186 6.89487 23.186 6.89487L21.528 13.6364L21.3506 14.3576C20.978 14.2157 20.5621 14.1275 20.1157 14.1275ZM7.53835 12.9194H7.67324C8.5235 12.9194 9.21158 13.4377 9.21158 14.0774V16.5937C9.21158 17.2334 8.5235 17.7517 7.67324 17.7517H7.53835C6.68808 17.7517 6 17.2334 6 16.5937V14.0774C6 13.4377 6.68808 12.9194 7.53835 12.9194ZM13.0928 14.7074L13.0478 14.7448C12.6672 15.0643 12.4232 15.4763 12.4232 15.9396C12.4232 15.9776 12.4336 16.0139 12.4376 16.0513C12.4729 16.4609 12.6849 16.8317 13.0221 17.1229C12.9651 17.2008 12.8913 17.2696 12.8142 17.3361C12.5203 17.588 12.0996 17.7517 11.6203 17.7517C10.7339 17.7517 10.0145 17.2105 10.0145 16.5436V12.9194C10.0145 12.6531 10.1325 12.409 10.3268 12.2091C10.6191 11.9089 11.0871 11.7114 11.6203 11.7114C12.5067 11.7114 13.2261 12.2526 13.2261 12.9194V14.5974C13.1771 14.6307 13.1385 14.6717 13.0928 14.7074V14.7074Z" fill="#FFDC5D"/>
<path d="M7.65532 18.3557C8.47748 18.3557 9.20089 18.038 9.62241 17.5571C9.72117 17.6677 9.84 17.7661 9.96846 17.8573C10.9199 18.5308 12.4044 18.488 13.3141 17.8054C13.4362 17.7136 13.5574 17.6212 13.6505 17.5106L13.6481 17.5088C13.8095 17.5783 14.0287 17.7516 14.8316 17.7516H16.8686C16.5715 17.9202 16.3001 18.128 16.0464 18.3557C15.0604 19.2418 14.4302 20.5338 14.4302 21.9798C14.4302 22.1466 14.61 22.2819 14.8316 22.2819C15.0532 22.2819 15.2331 22.1466 15.2331 21.9798C15.2331 20.4408 16.0006 19.0956 17.1415 18.3557C17.7293 17.9745 18.4133 17.7516 19.1472 17.7516C19.7196 17.7994 19.8272 17.1476 19.2475 17.1476H14.8316C13.9452 17.1476 13.2258 16.6064 13.2258 15.9396C13.2258 15.2727 13.9452 14.7315 14.8316 14.7315H21.2548C21.9437 14.7315 22.5876 15.0915 22.7907 15.5862L23.6635 17.7516C23.7462 17.954 24.048 18.8818 23.9935 19.0751C23.9935 21.9798 20.2231 25 15.6345 25C10.386 25 6.125 21.8403 6.01099 17.9123L6.02223 17.9184C6.43572 18.1871 6.96643 18.3557 7.55576 18.3557H7.65532Z" fill="#FFDC5D"/>
</svg>
