<svg width="30" height="30" viewBox="0 0 30 30" fill="none" xmlns="http://www.w3.org/2000/svg">
<path d="M25 15C25 20.5228 20.5228 25 15 25C9.47722 25 5 20.5228 5 15C5 9.47722 9.47722 5 15 5C20.5228 5 25 9.47722 25 15Z" fill="#FFCC4D"/>
<path fill-rule="evenodd" clip-rule="evenodd" d="M5.68877 11.1211C5.8221 11.2539 6.48766 11.6528 6.62044 12.0517C6.75377 12.45 7.02044 14.7094 7.81933 15.3744C8.64322 16.0589 11.751 15.8044 12.346 15.5078C13.6777 14.8439 13.841 12.9906 14.0765 12.0517C14.2093 11.52 15.0082 11.52 15.0082 11.52C15.0082 11.52 15.8071 11.52 15.9404 12.0511C16.176 12.9906 16.3404 14.8439 17.671 15.5072C18.2665 15.8044 21.3743 16.0594 22.1993 15.375C22.9971 14.71 23.2632 12.4506 23.3965 12.0517C23.5288 11.6533 24.1954 11.2544 24.3282 11.1217C24.4621 10.9889 24.4621 10.4572 24.3282 10.3239C24.0621 10.0583 20.9204 9.82167 17.5377 10.1911C16.8627 10.265 16.606 10.4567 15.0077 10.4567C13.4104 10.4567 13.1527 10.2644 12.4782 10.1911C9.09766 9.82111 5.95544 10.0578 5.68877 10.3233C5.55599 10.4561 5.55599 10.9883 5.68877 11.1211V11.1211Z" fill="#292F33"/>
<path d="M20.1863 18.1272C20.0874 18.0378 19.9396 18.0322 19.8335 18.1111C19.8118 18.1272 17.6546 19.7222 15.0002 19.7222C12.3524 19.7222 10.1879 18.1272 10.1668 18.1111C10.0607 18.0322 9.91293 18.0389 9.81404 18.1272C9.71571 18.2161 9.69349 18.3628 9.76182 18.4761C9.83349 18.5956 11.549 21.3889 15.0002 21.3889C18.4513 21.3889 20.1674 18.5956 20.2385 18.4761C20.3068 18.3622 20.2852 18.2161 20.1863 18.1272V18.1272Z" fill="#664500"/>
</svg>
