<svg width="574" height="574" viewBox="0 0 574 574" fill="none" xmlns="http://www.w3.org/2000/svg">
<g clip-path="url(#clip0_14_96)">
<path fill-rule="evenodd" clip-rule="evenodd" d="M269.368 380.635C271.732 391.439 285.457 404.458 296.862 406.708C308.906 409.085 331.71 407.606 345.567 407.606C345.163 405.761 340.674 401.091 339.311 399.626C336.893 397.027 334.566 395.262 332.771 391.989C333.239 389.849 334.683 388.493 335.805 386.464C337.074 384.171 337.74 382.845 338.794 380.175C343.514 368.199 343.26 351.495 338.408 339.686C337.027 336.327 333.159 329.142 331.026 327.401C329.421 350.939 313.422 372.589 294.394 378.521C286.816 380.885 278.874 380.633 269.368 380.633V380.635Z" fill="#0077FF"/>
<path fill-rule="evenodd" clip-rule="evenodd" d="M245.519 321.013C245.519 295.68 262.68 274.878 280.419 274.878C293.625 274.878 300.706 277.301 310.239 288.885C328.302 310.835 320.954 350.106 299.212 361.688C290.566 366.295 286.992 365.728 275.184 365.728C265.878 365.728 256.571 365.728 247.264 365.728C248.018 364.354 255.523 355.611 257.153 355.081C256.921 351.692 256.296 352.816 253.239 347.791C251.875 345.548 250.363 343.059 249.412 340.395C247.405 334.781 245.519 326.938 245.519 321.013ZM239.703 318.174C239.703 339.044 243.907 341.898 249.009 353.662L231.56 372.825H282.166C296.842 372.836 308.702 366.571 317.324 352.558C330.848 330.577 329.209 302.197 313.14 282.506C294.279 259.392 263.643 263.364 247.916 289.159C243.279 296.765 239.703 307.711 239.703 318.174Z" fill="#0077FF"/>
<path fill-rule="evenodd" clip-rule="evenodd" d="M399.793 272.214V412.204C399.793 427.046 409.746 439.19 421.911 439.19C434.074 439.19 444.027 427.046 444.027 412.204V256.836C444.027 251.822 442.89 247.116 440.917 243.083C439.041 239.081 436.311 235.615 432.821 233.155L298.228 138.336C294.672 135.83 290.766 134.678 286.918 134.744C283.071 134.678 279.165 135.83 275.608 138.336L141.016 233.155C133.964 238.124 130.002 247.202 129.977 256.516C129.977 256.645 129.977 256.773 129.979 256.902C129.988 257.395 129.997 257.883 130.022 258.372C129.995 257.883 129.98 257.392 129.975 256.902V412.27C129.975 427.111 139.928 439.256 152.093 439.256C164.256 439.256 174.208 427.114 174.208 412.27V272.098L286.917 192.694L399.79 272.214H399.793Z" fill="url(#paint0_linear_14_96)"/>
<path d="M362.48 344.063L362.48 401.699C362.48 409.555 369.566 415.924 378.307 415.924C387.047 415.924 394.133 409.555 394.133 401.699L394.133 344.063C394.133 336.207 387.047 329.838 378.307 329.838C369.566 329.838 362.48 336.207 362.48 344.063Z" fill="url(#paint1_linear_14_96)"/>
<path fill-rule="evenodd" clip-rule="evenodd" d="M470.616 372.884C470.616 360.181 461.178 349.535 448.48 346.693V399.078C461.18 396.237 470.616 385.588 470.616 372.884Z" fill="#0077FF"/>
<path d="M179.739 344.063L179.739 401.699C179.739 409.555 186.824 415.924 195.565 415.924C204.305 415.924 211.391 409.555 211.391 401.699L211.391 344.063C211.391 336.207 204.305 329.838 195.565 329.838C186.824 329.838 179.739 336.207 179.739 344.063Z" fill="url(#paint2_linear_14_96)"/>
<path fill-rule="evenodd" clip-rule="evenodd" d="M103.385 372.884C103.385 385.588 112.823 396.234 125.521 399.078V346.693C112.821 349.535 103.385 360.183 103.385 372.884V372.884Z" fill="#0077FF"/>
<path fill-rule="evenodd" clip-rule="evenodd" d="M525.693 431.657C525.319 456.117 520.054 459.215 500.337 459.438L500.399 483.945C519.343 484.427 534.818 481.818 541.746 465.118C553.139 437.659 544.146 372.571 547.642 336.684C549.961 312.876 555.602 302.609 573.702 299.667L573.508 274.317C563.203 272.593 559.277 270.595 554.22 262.505C543.11 244.733 547.383 192.092 547.692 169.671C548.48 112.408 545.843 88.8782 500.261 90.037L500.674 114.544C519.977 114.651 525.384 117.972 525.695 142.336C525.944 161.881 525.91 181.469 526.115 201.025C526.373 225.779 523.934 257.226 537.54 274.799C541.821 280.328 546.983 282.177 551.706 286.992C546.888 291.849 541.868 293.623 537.547 299.194C533.989 303.781 530.93 310.158 529.041 318.149C524.664 336.68 526.056 407.715 525.691 431.654L525.693 431.657Z" fill="#0077FF"/>
<path fill-rule="evenodd" clip-rule="evenodd" d="M48.3086 431.657C48.682 456.117 53.9475 459.215 73.6648 459.438L73.602 483.945C54.6584 484.427 39.1833 481.818 32.2554 465.118C20.8627 437.659 29.8551 372.571 26.3598 336.684C24.0403 312.876 18.3996 302.609 0.299805 299.667L0.493693 274.317C10.7985 272.593 14.7247 270.595 19.7819 262.505C30.891 244.733 26.6183 192.092 26.3095 169.671C25.5214 112.408 28.1586 88.8782 73.7402 90.037L73.3273 114.544C54.0247 114.651 48.6174 117.972 48.3068 142.336C48.0573 161.881 48.0914 181.469 47.8867 201.025C47.6282 225.779 50.0679 257.226 36.4617 274.799C32.18 280.328 27.0186 282.177 22.2953 286.992C27.1138 291.849 32.1333 293.623 36.4545 299.194C40.0127 303.781 43.0718 310.158 44.9604 318.149C49.3373 336.68 47.9459 407.715 48.3104 431.654L48.3086 431.657Z" fill="#0077FF"/>
</g>
<defs>
<linearGradient id="paint0_linear_14_96" x1="287.001" y1="134.741" x2="287.001" y2="439.256" gradientUnits="userSpaceOnUse">
<stop stop-color="#FFCC4D"/>
<stop offset="1" stop-color="#FFF995"/>
</linearGradient>
<linearGradient id="paint1_linear_14_96" x1="362.48" y1="372.881" x2="394.133" y2="372.881" gradientUnits="userSpaceOnUse">
<stop stop-color="#FFCC4D"/>
<stop offset="1" stop-color="#FFF995"/>
</linearGradient>
<linearGradient id="paint2_linear_14_96" x1="179.739" y1="372.881" x2="211.391" y2="372.881" gradientUnits="userSpaceOnUse">
<stop stop-color="#FFCC4D"/>
<stop offset="1" stop-color="#FFF995"/>
</linearGradient>
<clipPath id="clip0_14_96">
<rect width="573.4" height="394" fill="white" transform="translate(0.299805 89.9999)"/>
</clipPath>
</defs>
</svg>
