<svg width="30" height="30" viewBox="0 0 30 30" fill="none" xmlns="http://www.w3.org/2000/svg">
<path d="M11.4585 8.89997C11.3963 8.96321 11.3491 9.03943 11.3096 9.123L11.3052 9.11848L5.07424 23.3847L5.08035 23.3909C4.96479 23.6185 5.15812 24.0815 5.55422 24.4847C5.95032 24.8872 6.40587 25.0837 6.62975 24.9663L6.6353 24.9719L20.6716 18.6383L20.6671 18.6333C20.7488 18.5937 20.8238 18.5457 20.8866 18.4814C21.7543 17.5994 20.3472 14.7395 17.7444 12.0936C15.1406 9.44767 12.3268 8.018 11.4585 8.89997V8.89997Z" fill="#DD2E44"/>
<path d="M12.2218 11.4476L5.2309 23.0262L5.07424 23.3847L5.08035 23.3909C4.96479 23.6185 5.15812 24.0815 5.55422 24.4847C5.68311 24.6157 5.81699 24.715 5.9481 24.7992L14.444 14.2708L12.2218 11.4476Z" fill="#EA596E"/>
<path d="M17.7839 12.0495C20.3783 14.6876 21.8188 17.4995 20.9999 18.3306C20.1816 19.1629 17.415 17.6994 14.819 15.0625C12.2241 12.4245 10.7841 9.61142 11.6024 8.77971C12.4213 7.94799 15.1879 9.41154 17.7839 12.0495V12.0495Z" fill="#A0041E"/>
<path d="M15.3274 12.3562C15.2169 12.4471 15.0724 12.4945 14.9196 12.4776C14.4374 12.4245 14.0319 12.254 13.748 11.9846C13.4475 11.6995 13.2991 11.3166 13.3397 10.9333C13.4108 10.2602 14.0752 9.64249 15.208 9.76671C15.6485 9.8147 15.8452 9.67072 15.8518 9.60183C15.8596 9.53351 15.698 9.35 15.2574 9.30144C14.7752 9.24837 14.3697 9.07784 14.0852 8.80851C13.7847 8.52336 13.6358 8.14054 13.6769 7.75715C13.7491 7.08409 14.413 6.46637 15.5446 6.59116C15.8657 6.62617 16.0352 6.55898 16.1068 6.5155C16.1641 6.47993 16.1868 6.44605 16.1891 6.42628C16.1957 6.35796 16.0363 6.17445 15.5946 6.12589C15.2896 6.09202 15.0685 5.81421 15.1024 5.50366C15.1352 5.19367 15.408 4.96951 15.7141 5.00339C16.8457 5.12704 17.3657 5.87406 17.294 6.54768C17.2218 7.22186 16.5579 7.83845 15.4252 7.7148C15.1041 7.67922 14.9363 7.74698 14.8641 7.79046C14.8069 7.82547 14.7835 7.85991 14.7813 7.87911C14.7741 7.94799 14.9346 8.13094 15.3763 8.1795C16.5079 8.30372 17.0279 9.05018 16.9563 9.72379C16.8846 10.3968 16.2207 11.0146 15.0885 10.8898C14.7674 10.8548 14.5985 10.9225 14.5263 10.9654C14.4685 11.0016 14.4463 11.0355 14.4441 11.0547C14.4369 11.123 14.5974 11.3065 15.0385 11.355C15.343 11.3889 15.5646 11.6673 15.5307 11.9773C15.5152 12.132 15.438 12.2658 15.3274 12.3562V12.3562Z" fill="#AA8DD8"/>
<path d="M22.0335 17.578C23.1296 17.2634 23.8857 17.7603 24.0657 18.4125C24.2457 19.0641 23.8557 19.889 22.7602 20.2024C22.3324 20.3244 22.2041 20.5322 22.2213 20.5982C22.2402 20.6649 22.4574 20.7744 22.8841 20.6519C23.9796 20.3385 24.7357 20.8354 24.9157 21.487C25.0968 22.1391 24.7057 22.9629 23.6096 23.2769C23.1824 23.3988 23.0535 23.6072 23.0724 23.6733C23.0907 23.7393 23.3074 23.8489 23.7346 23.7269C24.029 23.6428 24.3368 23.8172 24.4196 24.1171C24.5018 24.4175 24.3301 24.7291 24.0346 24.8138C22.9396 25.1272 22.183 24.6315 22.0019 23.9787C21.8219 23.3271 22.2124 22.5033 23.309 22.1894C23.7368 22.0669 23.8651 21.8596 23.8462 21.793C23.8285 21.7269 23.6118 21.6168 23.1852 21.7388C22.0885 22.0527 21.333 21.557 21.1524 20.9037C20.9719 20.2521 21.3624 19.4283 22.4585 19.1138C22.8852 18.9924 23.0135 18.7835 22.9957 18.718C22.9768 18.6513 22.7607 18.5418 22.3335 18.6638C22.038 18.7485 21.7319 18.5734 21.6485 18.2736C21.5658 17.9743 21.738 17.6627 22.0335 17.578V17.578Z" fill="#77B255"/>
<path d="M17.7779 16.0551C17.6146 16.0551 17.4534 15.9823 17.3435 15.8434C17.1518 15.5995 17.1912 15.2443 17.4301 15.0495C17.5512 14.9507 20.44 12.6447 24.5227 13.2381C24.8266 13.2822 25.0377 13.5679 24.9944 13.8767C24.951 14.185 24.6721 14.4019 24.3655 14.3556C20.7584 13.835 18.1507 15.9106 18.1251 15.9315C18.0218 16.015 17.8995 16.0551 17.7779 16.0551V16.0551Z" fill="#AA8DD8"/>
<path d="M8.19657 13.7062C8.14379 13.7062 8.08991 13.6983 8.03657 13.6825C7.74269 13.5927 7.57603 13.2782 7.66436 12.9795C8.29379 10.8491 8.86433 7.44942 8.16324 6.56293C8.08491 6.46242 7.96658 6.36361 7.69547 6.3845C7.17438 6.42516 7.22382 7.54258 7.22437 7.55388C7.24771 7.86499 7.01771 8.13602 6.71217 8.15917C6.40162 8.17837 6.1394 7.94913 6.11663 7.63801C6.05941 6.85937 6.29773 5.35968 7.61214 5.25861C8.19879 5.21344 8.686 5.42066 9.02988 5.85543C10.3471 7.52169 9.00988 12.3522 8.72878 13.3042C8.65656 13.5487 8.43545 13.7062 8.19657 13.7062Z" fill="#77B255"/>
<path d="M19.1663 10.883C19.6265 10.883 19.9996 10.5038 19.9996 10.036C19.9996 9.56826 19.6265 9.18906 19.1663 9.18906C18.706 9.18906 18.333 9.56826 18.333 10.036C18.333 10.5038 18.706 10.883 19.1663 10.883Z" fill="#5C913B"/>
<path d="M6.11108 15.9648C6.72471 15.9648 7.22216 15.4592 7.22216 14.8355C7.22216 14.2118 6.72471 13.7062 6.11108 13.7062C5.49745 13.7062 5 14.2118 5 14.8355C5 15.4592 5.49745 15.9648 6.11108 15.9648Z" fill="#9266CC"/>
<path d="M23.0551 16.5294C23.5153 16.5294 23.8884 16.1502 23.8884 15.6825C23.8884 15.2147 23.5153 14.8355 23.0551 14.8355C22.5948 14.8355 22.2217 15.2147 22.2217 15.6825C22.2217 16.1502 22.5948 16.5294 23.0551 16.5294Z" fill="#5C913B"/>
<path d="M18.0552 23.3051C18.5154 23.3051 18.8885 22.9259 18.8885 22.4582C18.8885 21.9904 18.5154 21.6112 18.0552 21.6112C17.595 21.6112 17.2219 21.9904 17.2219 22.4582C17.2219 22.9259 17.595 23.3051 18.0552 23.3051Z" fill="#5C913B"/>
<path d="M20.5551 8.05978C21.1688 8.05978 21.6662 7.55419 21.6662 6.9305C21.6662 6.30681 21.1688 5.80122 20.5551 5.80122C19.9415 5.80122 19.444 6.30681 19.444 6.9305C19.444 7.55419 19.9415 8.05978 20.5551 8.05978Z" fill="#FFCC4D"/>
<path d="M23.0551 10.3184C23.5153 10.3184 23.8884 9.93916 23.8884 9.4714C23.8884 9.00363 23.5153 8.62444 23.0551 8.62444C22.5948 8.62444 22.2217 9.00363 22.2217 9.4714C22.2217 9.93916 22.5948 10.3184 23.0551 10.3184Z" fill="#FFCC4D"/>
<path d="M21.3884 12.5769C21.8487 12.5769 22.2218 12.1977 22.2218 11.73C22.2218 11.2622 21.8487 10.883 21.3884 10.883C20.9282 10.883 20.5551 11.2622 20.5551 11.73C20.5551 12.1977 20.9282 12.5769 21.3884 12.5769Z" fill="#FFCC4D"/>
<path d="M9.16655 18.788C9.62677 18.788 9.99986 18.4088 9.99986 17.941C9.99986 17.4733 9.62677 17.0941 9.16655 17.0941C8.70632 17.0941 8.33324 17.4733 8.33324 17.941C8.33324 18.4088 8.70632 18.788 9.16655 18.788Z" fill="#FFCC4D"/>
</svg>
