<svg width="30" height="30" viewBox="0 0 30 30" fill="none" xmlns="http://www.w3.org/2000/svg">
<path d="M8.78211 17.3163C9.90689 17.0376 10.4816 15.5257 10.0657 13.9396C9.64985 12.3534 8.40091 11.2934 7.27613 11.5722C6.15135 11.8509 5.57666 13.3628 5.99253 14.949C6.40839 16.5352 7.65733 17.5951 8.78211 17.3163Z" fill="#D79E84"/>
<path d="M24.0079 14.9496C24.4238 13.3634 23.8491 11.8516 22.7243 11.5729C21.5995 11.2941 20.3506 12.354 19.9347 13.9402C19.5188 15.5264 20.0935 17.0383 21.2183 17.317C22.3431 17.5957 23.592 16.5358 24.0079 14.9496Z" fill="#D79E84"/>
<path d="M15.5629 24.4444H14.4371C10.7229 24.4444 7.12114 21.6766 7.12114 17.8022C7.12114 15.5883 7.96514 14.4811 7.96514 14.4811C7.96514 14.4811 7.684 13.3738 7.684 12.2672C7.684 8.94603 11.2857 6.17824 15 6.17824C18.7143 6.17824 22.316 9.49937 22.316 12.2672C22.316 13.3744 22.0349 14.4811 22.0349 14.4811C22.0349 14.4811 22.8789 15.5883 22.8789 17.8022C22.8789 21.6766 19.2771 24.4444 15.5629 24.4444Z" fill="#BF6952"/>
<path d="M17.424 5.09435C17.424 5.09435 14.3937 4.5049 13.1817 6.27269C11.9697 8.04047 15.6057 6.86213 15.6057 6.86213C15.6057 6.86213 16.212 5.09435 17.424 5.09435Z" fill="#BF6952"/>
<path d="M21.6669 13.5438C21.6669 11.4288 19.9029 9.71382 17.7274 9.71382C16.668 9.71382 15.708 10.1227 15 10.7838C14.292 10.1222 13.332 9.71382 12.2726 9.71382C10.0971 9.71382 8.33315 11.4288 8.33315 13.5438C8.33315 14.8266 8.98457 15.9594 9.98 16.6544C9.70057 17.3277 9.54515 18.0689 9.54515 18.8466C9.54515 21.9383 11.9874 23.855 14.9994 23.855C18.0114 23.855 20.4537 21.9383 20.4537 18.8466C20.4537 18.0683 20.2983 17.3277 20.0189 16.6544C21.0154 15.9594 21.6669 14.8266 21.6669 13.5438V13.5438Z" fill="#D79E84"/>
<path d="M12.1429 16.1111C12.774 16.1111 13.2857 15.3649 13.2857 14.4444C13.2857 13.5239 12.774 12.7777 12.1429 12.7777C11.5117 12.7777 11 13.5239 11 14.4444C11 15.3649 11.5117 16.1111 12.1429 16.1111Z" fill="#292F33"/>
<path d="M17.8572 16.1111C18.4883 16.1111 19 15.3649 19 14.4444C19 13.5239 18.4883 12.7777 17.8572 12.7777C17.226 12.7777 16.7143 13.5239 16.7143 14.4444C16.7143 15.3649 17.226 16.1111 17.8572 16.1111Z" fill="#292F33"/>
<path d="M15 22.5C16.5514 22.5 17.8726 21.7333 18.3686 20.6616C18.5737 20.2183 18.2257 19.7222 17.7074 19.7222H12.2926C11.7743 19.7222 11.4263 20.2183 11.6314 20.6616C12.1274 21.7333 13.4486 22.5 15 22.5Z" fill="#642116"/>
<path d="M14.1428 17.8116C14.4584 17.8116 14.7143 17.5477 14.7143 17.2222C14.7143 16.8966 14.4584 16.6327 14.1428 16.6327C13.8272 16.6327 13.5714 16.8966 13.5714 17.2222C13.5714 17.5477 13.8272 17.8116 14.1428 17.8116Z" fill="#642116"/>
<path d="M15.8571 17.7777C16.1727 17.7777 16.4286 17.529 16.4286 17.2222C16.4286 16.9154 16.1727 16.6666 15.8571 16.6666C15.5415 16.6666 15.2857 16.9154 15.2857 17.2222C15.2857 17.529 15.5415 17.7777 15.8571 17.7777Z" fill="#642116"/>
<path d="M8.64229 17.9139C8.984 17.1955 9.14286 16.6233 9.14286 16.1111C9.14286 15.3844 8.79771 14.6888 8.52 14.1299C8.36343 13.8144 8.20171 13.4877 8.20171 13.3333C8.20171 13.2261 8.28286 12.8927 8.35429 12.5983C8.57543 11.6894 8.85029 10.5577 8.50457 10.0155C8.41886 9.88159 8.25657 9.72215 7.96629 9.72215C6.85143 9.72215 5.14286 12.0866 5.14286 14.9999C5.14286 16.4311 5.24229 17.3205 5.46 17.84L5 25H9L8.52171 18.0883C8.57029 18.0366 8.61143 17.9789 8.64229 17.9139V17.9139Z" fill="#BF6952"/>
<path d="M8.64228 17.9139C8.984 17.1955 9.14285 16.6233 9.14285 16.1111C9.14285 15.3844 8.79771 14.6888 8.52 14.1299C8.36343 13.8144 8.20171 13.4877 8.20171 13.3333C8.20171 13.2261 8.28285 12.8927 8.35428 12.5983C8.57543 11.6894 8.85028 10.5577 8.50457 10.0155C8.468 9.95881 8.41428 9.89937 8.34628 9.84715C7.92685 10.5921 7.684 11.4105 7.684 12.2672C7.684 13.3738 7.57143 15.5883 7.57143 17.8022C7.57143 17.9772 8.71428 25 8.71428 25H9L8.52057 18.0727C8.56571 18.0233 8.61314 17.9755 8.64228 17.9139V17.9139Z" fill="#9B3C07"/>
<path d="M7.96629 10.2777C7.18172 10.2777 5.61314 12.3194 5.61314 14.9999C5.61314 16.4122 5.71886 17.3188 5.92743 17.695C6.07314 17.9589 6.49029 17.9561 6.892 17.9522L7.02457 17.9516C7.68743 17.9516 8.15886 17.7944 8.23143 17.6416C8.528 17.0188 8.672 16.5177 8.672 16.1111C8.672 15.5355 8.37543 14.9377 8.11372 14.4105C7.9 13.9794 7.73086 13.6388 7.73086 13.3333C7.73086 13.1566 7.79257 12.8938 7.90172 12.4449C8.05257 11.8249 8.33314 10.6705 8.128 10.3499C8.11486 10.3283 8.08229 10.2777 7.96629 10.2777V10.2777Z" fill="#D79E84"/>
<path d="M25 25L24.54 17.84C24.7577 17.3205 24.8571 16.4316 24.8571 14.9999C24.8571 12.0866 23.1486 9.72215 22.0337 9.72215C21.7434 9.72215 21.5811 9.88159 21.4954 10.0155C21.1491 10.5577 21.4246 11.6894 21.6457 12.5983C21.7171 12.8927 21.7983 13.2261 21.7983 13.3333C21.7983 13.4877 21.6366 13.8144 21.48 14.1299C21.2023 14.6888 20.8571 15.385 20.8571 16.1111C20.8571 16.6233 21.016 17.1955 21.3583 17.9139C21.3891 17.9789 21.4303 18.0366 21.4789 18.0883L21 25H25Z" fill="#BF6952"/>
<path d="M22.4286 17.8022C22.4286 15.5883 22.316 13.3738 22.316 12.2672C22.316 11.5038 22.0343 10.6994 21.5594 9.93326C21.5354 9.96104 21.5126 9.98881 21.4954 10.0155C21.1491 10.5577 21.4246 11.6894 21.6457 12.5983C21.7171 12.8927 21.7983 13.2261 21.7983 13.3333C21.7983 13.4877 21.6366 13.8144 21.48 14.1299C21.2023 14.6888 20.8571 15.385 20.8571 16.1111C20.8571 16.6233 21.016 17.1955 21.3583 17.9139C21.3874 17.975 21.4349 18.0233 21.48 18.0727L21 25H21.2857C21.2857 25 22.4286 17.9772 22.4286 17.8022Z" fill="#9B3C07"/>
<path d="M22.0337 10.2777C21.9177 10.2777 21.8851 10.3283 21.8714 10.3499C21.6669 10.6705 21.9474 11.8249 22.0977 12.4449C22.2069 12.8938 22.2686 13.1566 22.2686 13.3333C22.2686 13.6388 22.0994 13.9794 21.8857 14.4105C21.624 14.9377 21.3274 15.5355 21.3274 16.1111C21.3274 16.5177 21.4714 17.0188 21.7674 17.6416C21.84 17.7938 22.3109 17.9516 22.9743 17.9516L23.1069 17.9522C23.508 17.9561 23.9251 17.9589 24.072 17.695C24.2806 17.3194 24.3863 16.4127 24.3863 14.9999C24.3863 12.3194 22.8183 10.2777 22.0337 10.2777V10.2777Z" fill="#D79E84"/>
</svg>
