<svg width="30" height="30" viewBox="0 0 30 30" fill="none" xmlns="http://www.w3.org/2000/svg">
<path d="M14.9999 5C11.6012 5 8.8461 7.71333 8.8461 11.0606V17.1212H11.3076V11.0606C11.3076 9.05273 12.9606 7.42424 14.9999 7.42424C17.0393 7.42424 18.6923 9.05273 18.6923 11.0606V17.1212H21.1538V11.0606C21.1538 7.71333 18.3987 5 14.9999 5Z" fill="#AAB8C2"/>
<path d="M23 22.5758C23 23.9145 21.8978 25 20.5385 25H9.46154C8.10215 25 7 23.9145 7 22.5758V15.303C7 13.9642 8.10215 12.8788 9.46154 12.8788H20.5385C21.8978 12.8788 23 13.9642 23 15.303V22.5758Z" fill="#FFAC33"/>
</svg>
