<svg width="30" height="30" viewBox="0 0 30 30" fill="none" xmlns="http://www.w3.org/2000/svg">
<path d="M13.4372 6.64722C14.405 6.64722 15.1892 7.26889 15.1892 8.03611V8.03889L16.9411 5.25833C17.9088 5.25833 18.693 5.88 18.693 6.64722V7.36111L20.4449 6.50833C21.4126 6.50833 22.1968 7.13 22.1968 7.89722V9.86111L22.8976 15H13.4078L13.4372 6.64722Z" fill="#EF9645"/>
<path d="M5.81657 14.0106C6.78432 13.6711 8.16693 14.1261 9.1452 15.2261C9.7878 15.9483 9.97701 16.9767 10.8207 17.0839C11.1431 17.1244 11.6855 16.91 11.6855 16.3078V7.5C11.6855 7.5 11.6855 6.38889 13.087 6.38889C14.4885 6.38889 14.4885 7.5 14.4885 7.5V13.9628C14.4885 13.9467 15.1893 13.9272 15.1893 13.9172V6.11111C15.1893 6.11111 15.1893 5 16.5908 5C17.9924 5 17.9924 6.11111 17.9924 6.11111V13.9183C17.9924 13.9278 18.6931 13.9411 18.6931 13.9567V7.36111C18.6931 7.36111 18.6931 6.25 20.0946 6.25C21.4962 6.25 21.4962 7.36111 21.4962 7.36111V14.3822C21.4962 14.4478 22.1969 14.5217 22.1969 14.6033V9.86111C22.1969 9.86111 22.1969 8.75 23.5985 8.75C25 8.75 25 9.86111 25 9.86111V18.3333C25 22.015 21.2348 25 16.5908 25C13.2447 25 10.9427 23.5567 9.65606 22.06C8.56497 20.7906 8.24892 19.4728 8.18165 19.0744C8.18165 19.0744 8.09545 18.2528 7.37156 17.4828C6.34214 16.3889 5.61965 15.7294 5.18167 15.335C4.95953 15.1356 4.7437 14.3867 5.81657 14.0106Z" fill="#FFDC5D"/>
</svg>
