<svg width="30" height="30" viewBox="0 0 30 30" fill="none" xmlns="http://www.w3.org/2000/svg">
<path d="M25 20.5385C25 21.8978 24.005 23 22.7778 23H7.22222C5.995 23 5 21.8978 5 20.5385V9.46154C5 8.10215 5.995 7 7.22222 7H22.7778C24.005 7 25 8.10215 25 9.46154V20.5385Z" fill="#CCD6DD"/>
<path d="M11.6389 14.776L5.35391 21.7379C5.33891 21.7551 5.33335 21.7766 5.32057 21.7939C5.50946 22.1446 5.77279 22.4357 6.08946 22.6456C6.10557 22.6314 6.12446 22.6253 6.13946 22.6086L12.425 15.6462C12.6417 15.4056 12.6417 15.0166 12.425 14.776C12.2072 14.5354 11.8561 14.5354 11.6389 14.776ZM24.6795 21.7939C24.6678 21.7766 24.6611 21.7551 24.6461 21.7385L18.3617 14.776C18.1439 14.5354 17.7928 14.5354 17.5756 14.776C17.3583 15.0173 17.3583 15.4062 17.5756 15.6462L23.8606 22.6086C23.875 22.6246 23.895 22.6314 23.9106 22.6456C24.2278 22.4363 24.4906 22.1446 24.6795 21.7939Z" fill="#99AAB5"/>
<path d="M22.7778 7H7.22222C5.995 7 5 8.10215 5 9.46154V10.0954L13.0711 19.016C14.1233 20.1809 15.8422 20.1809 16.8956 19.016L25 10.0825V9.46154C25 8.10215 24.005 7 22.7778 7Z" fill="#99AAB5"/>
<path d="M22.7778 7H7.22224C6.34001 7 5.5839 7.57477 5.22501 8.4L13.4283 17.4874C14.2961 18.4486 15.7039 18.4486 16.5711 17.4874L24.775 8.4C24.4161 7.57477 23.6606 7 22.7778 7Z" fill="#E1E8ED"/>
</svg>
